<svg width="16" height="16" viewBox="0 0 16 16" fill="none" xmlns="http://www.w3.org/2000/svg">
<path d="M6.16663 0H1.16663C0.523315 0 0 0.523315 0 1.16663V4.16663C0 4.81006 0.523315 5.33337 1.16663 5.33337H6.16663C6.81006 5.33337 7.33337 4.81006 7.33337 4.16663V1.16663C7.33337 0.523315 6.81006 0 6.16663 0Z" fill="#2D71BB"/>
<path d="M6.16663 6.66663H1.16663C0.523315 6.66663 0 7.18994 0 7.83337V14.8334C0 15.4767 0.523315 16 1.16663 16H6.16663C6.81006 16 7.33337 15.4767 7.33337 14.8334V7.83337C7.33337 7.18994 6.81006 6.66663 6.16663 6.66663Z" fill="#2D71BB"/>
<path d="M14.8328 10.6666H9.83277C9.18933 10.6666 8.66602 11.1899 8.66602 11.8334V14.8334C8.66602 15.4767 9.18933 16 9.83277 16H14.8328C15.4761 16 15.9994 15.4767 15.9994 14.8334V11.8334C15.9994 11.1899 15.4761 10.6666 14.8328 10.6666Z" fill="#2D71BB"/>
<path d="M14.8328 0H9.83277C9.18933 0 8.66602 0.523315 8.66602 1.16663V8.16663C8.66602 8.81006 9.18933 9.33337 9.83277 9.33337H14.8328C15.4761 9.33337 15.9994 8.81006 15.9994 8.16663V1.16663C15.9994 0.523315 15.4761 0 14.8328 0V0Z" fill="#2D71BB"/>
</svg>
