<svg width="16" height="16" viewBox="0 0 16 16" fill="none" xmlns="http://www.w3.org/2000/svg">
<g clip-path="url(#clip0)">
<path d="M9.9999 8.66733C9.63125 8.66733 9.33328 8.96603 9.33328 9.33395V12.0007C9.33328 12.368 9.03457 12.6673 8.66654 12.6673H6.66656V2.66739C6.66656 2.09805 6.30389 1.58939 5.75861 1.40006L5.56122 1.33402H8.66654C9.03457 1.33402 9.33328 1.63334 9.33328 2.00077V4.00075C9.33328 4.36866 9.63125 4.66737 9.9999 4.66737C10.3685 4.66737 10.6665 4.36866 10.6665 4.00075V2.00077C10.6665 0.898116 9.76919 0.000785828 8.66654 0.000785828H1.49998C1.47459 0.000785828 1.45335 0.0121383 1.4287 0.0154341C1.39659 0.0127486 1.36595 0.000785828 1.33336 0.000785828C0.598016 0.000785828 0 0.59868 0 1.33402V13.3339C0 13.9032 0.362667 14.4119 0.907949 14.6012L4.91999 15.9386C5.05598 15.9806 5.19123 16.0006 5.33332 16.0006C6.06866 16.0006 6.66656 15.4026 6.66656 14.6673V14.0006H8.66654C9.76919 14.0006 10.6665 13.1033 10.6665 12.0007V9.33395C10.6665 8.96603 10.3685 8.66733 9.9999 8.66733Z" fill="#2D71BB"/>
<path d="M15.804 6.19545L13.1373 3.52886C12.9467 3.33818 12.66 3.28081 12.4107 3.38408C12.1621 3.48747 11.9994 3.73076 11.9994 4.00016V6.00014H9.33276C8.96472 6.00014 8.66602 6.29872 8.66602 6.66676C8.66602 7.0348 8.96472 7.33338 9.33276 7.33338H11.9994V9.33336C11.9994 9.60277 12.1621 9.84605 12.4107 9.94944C12.66 10.0527 12.9467 9.99534 13.1373 9.80479L15.804 7.13807C16.0646 6.87745 16.0646 6.45607 15.804 6.19545Z" fill="#2D71BB"/>
</g>
<defs>
<clipPath id="clip0">
<rect width="16" height="16" fill="white"/>
</clipPath>
</defs>
</svg>
