<svg width="16" height="16" viewBox="0 0 16 16" fill="none" xmlns="http://www.w3.org/2000/svg">
<g clip-path="url(#clip0)">
<path d="M13.6905 8.54127H12.4531C12.5793 8.88658 12.6482 9.25924 12.6482 9.64764V14.3242C12.6482 14.4862 12.62 14.6416 12.5687 14.7862H14.6143C15.3785 14.7862 16.0002 14.1645 16.0002 13.4003V10.8509C16.0002 9.57739 14.9641 8.54127 13.6905 8.54127Z" fill="#2D71BB"/>
<path d="M3.35204 9.64767C3.35204 9.25923 3.42094 8.8866 3.54707 8.54129H2.30969C1.03613 8.54129 0 9.57742 0 10.851V13.4004C0 14.1645 0.621657 14.7862 1.38582 14.7862H3.43151C3.38023 14.6416 3.35204 14.4862 3.35204 14.3242V9.64767Z" fill="#2D71BB"/>
<path d="M9.41488 7.33798H6.58606C5.31249 7.33798 4.27637 8.37411 4.27637 9.64767V14.3242C4.27637 14.5793 4.48318 14.7862 4.73831 14.7862H11.2626C11.5178 14.7862 11.7246 14.5794 11.7246 14.3242V9.64767C11.7246 8.37411 10.6884 7.33798 9.41488 7.33798Z" fill="#2D71BB"/>
<path d="M8.00035 1.21375C6.46872 1.21375 5.22266 2.45981 5.22266 3.99147C5.22266 5.03038 5.79606 5.93772 6.64288 6.4141C7.04454 6.64003 7.5076 6.76916 8.00035 6.76916C8.4931 6.76916 8.95616 6.64003 9.35782 6.4141C10.2047 5.93772 10.778 5.03034 10.778 3.99147C10.778 2.45984 9.53198 1.21375 8.00035 1.21375Z" fill="#2D71BB"/>
<path d="M3.12227 3.80279C1.9768 3.80279 1.04492 4.73466 1.04492 5.88014C1.04492 7.02561 1.9768 7.95748 3.12227 7.95748C3.41283 7.95748 3.68952 7.8973 3.94086 7.78911C4.37543 7.60201 4.73374 7.27083 4.95546 6.85598C5.11109 6.56482 5.19962 6.23267 5.19962 5.88014C5.19962 4.7347 4.26774 3.80279 3.12227 3.80279Z" fill="#2D71BB"/>
<path d="M12.8771 3.80279C11.7317 3.80279 10.7998 4.73466 10.7998 5.88014C10.7998 6.2327 10.8883 6.56486 11.044 6.85598C11.2657 7.27086 11.624 7.60205 12.0586 7.78911C12.3099 7.8973 12.5866 7.95748 12.8771 7.95748C14.0226 7.95748 14.9545 7.02561 14.9545 5.88014C14.9545 4.73466 14.0226 3.80279 12.8771 3.80279Z" fill="#2D71BB"/>
</g>
<defs>
<clipPath id="clip0">
<rect width="16" height="16" fill="white"/>
</clipPath>
</defs>
</svg>
